<svg width="12" height="12" viewBox="0 0 12 12" fill="none" xmlns="http://www.w3.org/2000/svg">
<path d="M10.218 11.132C10.0713 11.132 9.92467 11.1027 9.778 11.044C9.646 10.9853 9.536 10.9047 9.448 10.802L6.324 6.974L2.716 10.802C2.52533 11.0073 2.26867 11.11 1.946 11.11C1.66733 11.11 1.42533 11.0073 1.22 10.802C1.01467 10.582 0.912 10.3327 0.912 10.054C0.912 9.746 1.01467 9.48933 1.22 9.284L4.96 5.434L2.012 1.914C1.924 1.81133 1.85067 1.694 1.792 1.562C1.748 1.43 1.726 1.31267 1.726 1.21C1.726 0.916666 1.82867 0.667333 2.034 0.461999C2.23933 0.242 2.48133 0.132 2.76 0.132C3.08267 0.132 3.34667 0.249333 3.552 0.484L6.456 4.048L9.844 0.505999C10.064 0.286 10.3207 0.176 10.614 0.176C10.8927 0.176 11.1347 0.286 11.34 0.505999C11.56 0.711333 11.67 0.953333 11.67 1.232C11.67 1.364 11.6407 1.496 11.582 1.628C11.5233 1.76 11.45 1.87 11.362 1.958L7.842 5.566L11.054 9.416C11.2007 9.60667 11.274 9.82667 11.274 10.076C11.274 10.3693 11.1713 10.6187 10.966 10.824C10.7607 11.0293 10.5113 11.132 10.218 11.132Z" fill="#FF0000"/>
</svg>
